<svg width="305" height="37" viewBox="0 0 305 37" fill="none" xmlns="http://www.w3.org/2000/svg">
<path d="M234.032 6.8C237.464 6.8 240.308 8.024 242.564 10.472C244.844 12.896 245.984 15.872 245.984 19.4C245.984 22.928 244.844 25.916 242.564 28.364C240.308 30.788 237.464 32 234.032 32H224.204V6.8H234.032ZM234.032 28.832C236.6 28.832 238.7 27.932 240.332 26.132C241.964 24.332 242.78 22.088 242.78 19.4C242.78 16.712 241.964 14.468 240.332 12.668C238.7 10.868 236.6 9.968 234.032 9.968H227.552V28.832H234.032ZM264.912 29.732C263.064 31.556 260.82 32.468 258.18 32.468C255.54 32.468 253.296 31.556 251.448 29.732C249.624 27.908 248.712 25.664 248.712 23C248.712 20.336 249.624 18.092 251.448 16.268C253.296 14.444 255.54 13.532 258.18 13.532C260.82 13.532 263.064 14.444 264.912 16.268C266.76 18.092 267.684 20.336 267.684 23C267.684 25.664 266.76 27.908 264.912 29.732ZM258.18 29.408C259.98 29.408 261.492 28.796 262.716 27.572C263.94 26.348 264.552 24.824 264.552 23C264.552 21.176 263.94 19.652 262.716 18.428C261.492 17.204 259.98 16.592 258.18 16.592C256.404 16.592 254.904 17.204 253.68 18.428C252.456 19.652 251.844 21.176 251.844 23C251.844 24.824 252.456 26.348 253.68 27.572C254.904 28.796 256.404 29.408 258.18 29.408ZM279.836 32.468C277.124 32.468 274.868 31.568 273.068 29.768C271.268 27.944 270.368 25.688 270.368 23C270.368 20.312 271.268 18.068 273.068 16.268C274.868 14.444 277.124 13.532 279.836 13.532C281.612 13.532 283.208 13.964 284.624 14.828C286.04 15.668 287.096 16.808 287.792 18.248L285.164 19.76C284.708 18.8 284 18.032 283.04 17.456C282.104 16.88 281.036 16.592 279.836 16.592C278.036 16.592 276.524 17.204 275.3 18.428C274.1 19.652 273.5 21.176 273.5 23C273.5 24.8 274.1 26.312 275.3 27.536C276.524 28.76 278.036 29.372 279.836 29.372C281.036 29.372 282.116 29.096 283.076 28.544C284.036 27.968 284.768 27.2 285.272 26.24L287.936 27.788C287.168 29.204 286.064 30.344 284.624 31.208C283.184 32.048 281.588 32.468 279.836 32.468ZM293.588 18.86C293.588 19.556 293.936 20.12 294.632 20.552C295.328 20.96 296.168 21.296 297.152 21.56C298.136 21.8 299.12 22.088 300.104 22.424C301.088 22.736 301.928 23.288 302.624 24.08C303.32 24.848 303.668 25.844 303.668 27.068C303.668 28.7 303.032 30.008 301.76 30.992C300.512 31.976 298.904 32.468 296.936 32.468C295.184 32.468 293.684 32.084 292.436 31.316C291.188 30.548 290.3 29.528 289.772 28.256L292.472 26.708C292.76 27.572 293.3 28.256 294.092 28.76C294.884 29.264 295.832 29.516 296.936 29.516C297.968 29.516 298.82 29.324 299.492 28.94C300.164 28.532 300.5 27.908 300.5 27.068C300.5 26.372 300.152 25.82 299.456 25.412C298.76 24.98 297.92 24.644 296.936 24.404C295.952 24.14 294.968 23.84 293.984 23.504C293 23.168 292.16 22.616 291.464 21.848C290.768 21.08 290.42 20.096 290.42 18.896C290.42 17.336 291.02 16.052 292.22 15.044C293.444 14.036 294.968 13.532 296.792 13.532C298.256 13.532 299.552 13.868 300.68 14.54C301.832 15.188 302.696 16.1 303.272 17.276L300.644 18.752C299.996 17.216 298.712 16.448 296.792 16.448C295.904 16.448 295.148 16.664 294.524 17.096C293.9 17.504 293.588 18.092 293.588 18.86Z" fill="#676767"/>
<path d="M10.75 16.3564V36.4064H0V0.0763648C0.21 0.0663648 0.41 0.0163648 0.6 0.0163648H9.49C9.66804 0.00331859 9.84633 0.0381707 10.0063 0.117302C10.1664 0.196434 10.3023 0.31696 10.4 0.466365C13.25 4.46636 16.11 8.36637 18.96 12.3264C19.34 12.8564 19.64 13.4464 19.96 13.9664C20.84 12.6964 21.74 11.3664 22.67 10.0664C25 6.89637 27.26 3.72636 29.54 0.546365C29.6422 0.374941 29.7895 0.234864 29.9658 0.141405C30.1422 0.0479467 30.3408 0.00469464 30.54 0.0163648C33.44 0.0163648 36.33 0.0163648 39.23 0.0163648H40V27.7964H40.16C40.62 26.7064 41.09 25.6064 41.54 24.5064C44.82 16.6064 48.09 8.6897 51.35 0.756365C51.4118 0.512076 51.5636 0.300134 51.775 0.162932C51.9863 0.0257297 52.2417 -0.026616 52.49 0.0163648C55.68 0.0163648 58.88 0.0163648 62.07 0.0163648C62.2761 -0.00707861 62.4838 0.044788 62.6547 0.162403C62.8256 0.280018 62.9483 0.455452 63 0.656365C67.1067 10.3897 71.2233 20.1097 75.35 29.8164C75.42 30.0064 75.51 30.1864 75.65 30.4864C80.44 23.0164 85.17 15.5864 90 8.07637H73.58V0.0763648H107.67L89.67 28.4364C89.83 28.4364 90.02 28.4364 90.2 28.4364C94.06 28.4364 97.91 28.4364 101.76 28.4364C101.976 28.4738 102.199 28.4288 102.384 28.3104C102.569 28.192 102.703 28.0086 102.76 27.7964C106.493 18.7564 110.227 9.71636 113.96 0.676365C114.035 0.466063 114.178 0.286841 114.366 0.167236C114.555 0.0476318 114.778 -0.00547761 115 0.0163648C118.21 0.0163648 121.43 0.0163648 124.64 0.0163648C124.837 -0.00772474 125.036 0.0395515 125.201 0.149624C125.366 0.259697 125.486 0.425282 125.54 0.616365C128.207 6.97636 130.89 13.3097 133.59 19.6164C133.683 19.869 133.826 20.1003 134.01 20.2964V0.0863648H145V16.6564C147.127 13.9097 149.25 11.183 151.37 8.47637C153.49 5.7697 155.587 3.10303 157.66 0.476365C157.827 0.254538 158.075 0.107305 158.35 0.0663648C162.07 0.0663648 165.78 0.0663648 169.5 0.0663648C169.605 0.0843546 169.709 0.111114 169.81 0.146365L155.71 17.7164L164.33 28.8364C164.55 28.3064 164.74 27.8364 164.92 27.4464C168.62 18.493 172.313 9.5597 176 0.646365C176.055 0.433452 176.189 0.249527 176.375 0.132364C176.561 0.0152008 176.784 -0.0263072 177 0.0163648C180.26 0.0163648 183.52 0.0163648 186.78 0.0163648C186.968 -0.00747649 187.158 0.0369615 187.316 0.141584C187.474 0.246206 187.589 0.404051 187.64 0.586365C192.547 12.3264 197.483 24.063 202.45 35.7964C202.52 35.9664 202.57 36.1364 202.66 36.4064C202.37 36.4064 202.14 36.4064 201.9 36.4064C198.41 36.4064 194.9 36.4064 191.44 36.4064C191.231 36.4425 191.016 36.3974 190.84 36.2802C190.663 36.1631 190.538 35.9828 190.49 35.7764C189.8 33.8764 189.05 31.9964 188.35 30.0964C188.311 29.8984 188.199 29.7224 188.036 29.6037C187.872 29.485 187.67 29.4324 187.47 29.4564C183.76 29.4564 180.04 29.4564 176.33 29.4564C176.153 29.4321 175.974 29.4751 175.828 29.577C175.681 29.679 175.579 29.8322 175.54 30.0064C174.84 32.0064 174.1 33.9364 173.4 35.9064C173.366 36.0683 173.272 36.2112 173.136 36.306C173 36.4008 172.834 36.4402 172.67 36.4164C167.67 36.4164 162.59 36.4164 157.56 36.3664C157.401 36.3543 157.247 36.3099 157.106 36.2359C156.965 36.162 156.84 36.0601 156.74 35.9364C153.127 31.1897 149.547 26.393 146 21.5464C145.673 21.0373 145.376 20.5098 145.11 19.9664V36.4564H144.35H129.35C129.152 36.4834 128.951 36.4345 128.788 36.3194C128.625 36.2044 128.511 36.0318 128.47 35.8364C127.77 33.9364 127.01 32.0664 126.33 30.1564C126.28 29.9392 126.148 29.7496 125.962 29.6268C125.776 29.504 125.55 29.4573 125.33 29.4964C121.69 29.4964 118.043 29.4964 114.39 29.4964C114.181 29.4675 113.969 29.5213 113.799 29.6465C113.629 29.7716 113.514 29.9581 113.48 30.1664C112.73 32.1464 112 34.0164 111.31 36.0164C111.276 36.179 111.182 36.3229 111.047 36.4193C110.911 36.5157 110.745 36.5575 110.58 36.5364C95.9533 36.5364 81.32 36.5364 66.68 36.5364C66.5021 36.5573 66.3228 36.5102 66.1781 36.4045C66.0334 36.2988 65.9341 36.1423 65.9 35.9664C65.19 34.0464 64.44 32.1464 63.73 30.2264C63.6934 30.0284 63.5834 29.8516 63.4222 29.7311C63.2609 29.6107 63.0602 29.5554 62.86 29.5764C59.15 29.5764 55.43 29.5764 51.71 29.5764C51.23 29.5764 51.05 29.7664 50.9 30.1864C50.21 32.0964 49.48 34.0164 48.78 36.0164C48.7506 36.1794 48.6591 36.3246 48.5249 36.4216C48.3906 36.5186 48.224 36.5597 48.06 36.5364C42.02 36.5364 35.9767 36.5364 29.93 36.5364C29.3 36.5364 29.24 36.2664 29.25 35.7564C29.25 29.4697 29.25 23.1797 29.25 16.8864V16.2464C27.66 18.3164 26 20.4664 24.4 22.6164C23.13 24.2864 21.85 25.9464 20.58 27.6164L19.98 28.3564L10.75 16.3564V16.3564ZM60.92 22.5664C59.69 18.7764 58.47 15.0664 57.25 11.3264L53.55 22.5664H60.92ZM185.54 22.5664C184.29 18.7664 183.08 15.0664 181.86 11.3264C180.62 15.1064 179.4 18.8064 178.17 22.5664H185.54ZM123.43 22.5664C122.2 18.7764 120.98 15.0664 119.76 11.3164C118.52 15.0964 117.3 18.7964 116.07 22.5664H123.43Z" fill="#027834"/>
<line x1="211" y1="-4.37114e-08" x2="211" y2="37" stroke="#676767" stroke-width="2"/>
</svg>
